<svg data-v-0dd9719b="" version="1.0" xmlns="http://www.w3.org/2000/svg" xmlns:xlink="http://www.w3.org/1999/xlink" width="100%" height="100%" viewBox="0 0 340.000000 250.000000" preserveAspectRatio="xMidYMid meet" color-interpolation-filters="sRGB" style="margin: auto;"> <rect data-v-0dd9719b="" x="0" y="0" width="100%" height="100%" fill="#ffffff" fill-opacity="1" class="background"></rect> <rect data-v-0dd9719b="" x="0" y="0" width="100%" height="100%" fill="url(#watermark)" fill-opacity="1" class="watermarklayer"></rect> <g data-v-0dd9719b="" fill="#0a0619" class="icon-text-wrapper icon-svg-group iconsvg" transform="translate(12.30999755859375,95)"><g class="iconsvg-imagesvg" transform="translate(0,0)"><g><rect fill="#0a0619" fill-opacity="0" stroke-width="2" x="0" y="0" width="60" height="60" class="image-rect"></rect> <svg filter="url(#colors6052337429)" x="0" y="0" width="60" height="60" filtersec="colorsf5952337153" class="image-svg-svg primary" style="overflow: visible;"><svg xmlns="http://www.w3.org/2000/svg" viewBox="16 16 480 480" x="0px" y="0px"><circle cx="136" cy="208" r="8"></circle><circle cx="216" cy="208" r="8"></circle><path d="M488,288H280a8,8,0,0,0-8,8v8H233.631a112.769,112.769,0,0,0,43.548-48H280a39.978,39.978,0,0,0,25.294-70.955A101.972,101.972,0,0,0,320,131.852c0-50.158-34.965-90.963-77.942-90.963a67.627,67.627,0,0,0-18.8,2.662A114.692,114.692,0,0,0,148.8,16C84.4,16,32,69.832,32,136a122.865,122.865,0,0,0,11.506,51.957A39.979,39.979,0,0,0,72,256h2.821a112.769,112.769,0,0,0,43.548,48H56a40.045,40.045,0,0,0-40,40V488a8,8,0,0,0,8,8H488a8,8,0,0,0,8-8V296A8,8,0,0,0,488,288Zm-8,16V448H288V304ZM206.165,320c-4.4,9.311-16.26,16-30.165,16s-25.762-6.689-30.165-16Zm77.243-80.246A111.652,111.652,0,0,0,288,208V193.376a24,24,0,0,1-4.592,46.378ZM304,131.852a85.6,85.6,0,0,1-12.888,45.723c-1.022-.3-2.059-.557-3.112-.771V153a8,8,0,0,0-8-8c-32.314,0-59.047-17.577-75.217-31.585,19.557-28.2,26.631-54.17,26.946-55.353L231.48,58a51.607,51.607,0,0,1,10.578-1.106C276.213,56.889,304,90.517,304,131.852ZM48,136C48,78.654,93.219,32,148.8,32a98.826,98.826,0,0,1,66.3,25.7,189.54,189.54,0,0,1-28.787,53.87C157.416,149.014,118.955,168,72,168a8,8,0,0,0-8,8v.8a39.59,39.59,0,0,0-7.03,2.134A106.954,106.954,0,0,1,48,136Zm88,48a24,24,0,1,1-24,24A24.028,24.028,0,0,1,136,184ZM96.805,200H80V183.825a165.856,165.856,0,0,0,27.07-3.4A39.933,39.933,0,0,0,96.805,200ZM48,216a24.039,24.039,0,0,1,16-22.624V208a111.652,111.652,0,0,0,4.592,31.754A24.035,24.035,0,0,1,48,216Zm32.336,0H96.805a40,40,0,1,0,45.246-47.542,160.392,160.392,0,0,0,53.054-42.266c16.881,14.44,43.806,32,76.9,34.505V200H255.2a40,40,0,1,0,0,16h16.469a96,96,0,0,1-191.328,0ZM240,208a24,24,0,1,1-24-24A24.028,24.028,0,0,1,240,208ZM190.624,480H168V464A24.039,24.039,0,0,1,190.624,480ZM152,480H129.376A24.039,24.039,0,0,1,152,464Zm88-24v24H207.2A40.069,40.069,0,0,0,168,448H152a40.069,40.069,0,0,0-39.195,32H32V344a24.028,24.028,0,0,1,24-24h72.966c4.46,18.235,23.853,32,47.034,32s42.574-13.765,47.034-32H272V448H248A8,8,0,0,0,240,456Zm240,24H256V464H480Z"></path><path d="M312,336h16a8,8,0,0,0,0-16H312a8,8,0,0,0,0,16Z"></path><path d="M312,368h16a8,8,0,0,0,0-16H312a8,8,0,0,0,0,16Z"></path><path d="M392,384H376a8,8,0,0,0,0,16h16a8,8,0,0,0,0-16Z"></path><circle cx="312" cy="392" r="8"></circle><path d="M392,368h16a8,8,0,0,0,0-16H392a8,8,0,0,0,0,16Z"></path><path d="M360,336h16a8,8,0,0,0,0-16H360a8,8,0,0,0,0,16Z"></path><circle cx="408" cy="328" r="8"></circle><circle cx="360" cy="360" r="8"></circle><circle cx="312" cy="424" r="8"></circle><circle cx="344" cy="392" r="8"></circle><circle cx="392" cy="424" r="8"></circle><circle cx="424" cy="424" r="8"></circle><circle cx="424" cy="392" r="8"></circle><circle cx="440" cy="360" r="8"></circle><path d="M360,416H344a8,8,0,0,0,0,16h16a8,8,0,0,0,0-16Z"></path><path d="M195.562,257.344c-13.345,8.9-25.779,8.9-39.124,0a8,8,0,1,0-8.876,13.312c9.3,6.2,18.871,9.3,28.438,9.3s19.136-3.1,28.438-9.3a8,8,0,0,0-8.876-13.312Z"></path></svg></svg> <defs><filter id="colors6052337429"><feColorMatrix type="matrix" values="0 0 0 0 0.99609375  0 0 0 0 0.03125  0 0 0 0 0.265625  0 0 0 1 0" class="icon-fecolormatrix"></feColorMatrix></filter> <filter id="colorsf5952337153"><feColorMatrix type="matrix" values="0 0 0 0 0.99609375  0 0 0 0 0.99609375  0 0 0 0 0.99609375  0 0 0 1 0" class="icon-fecolormatrix"></feColorMatrix></filter> <filter id="colorsb6213109035"><feColorMatrix type="matrix" values="0 0 0 0 0  0 0 0 0 0  0 0 0 0 0  0 0 0 1 0" class="icon-fecolormatrix"></feColorMatrix></filter></defs></g></g> <g transform="translate(67,7.569999694824219)"><g data-gra="path-name" fill-rule="" class="tp-name iconsvg-namesvg" transform="translate(0,0)"><g transform="scale(1)"><g><path d="M3.9 0.18Q3.07 0.18 2.53-0.29 1.99-0.77 1.99-1.66L1.99-1.66 1.99-19.97Q1.99-20.86 2.53-21.32 3.07-21.78 3.9-21.78L3.9-21.78Q4.72-21.78 5.28-21.32 5.83-20.86 5.83-19.97L5.83-19.97 5.83-1.66Q5.83-0.77 5.28-0.29 4.72 0.18 3.9 0.18L3.9 0.18ZM11.69 0.18Q10.86 0.18 10.32-0.29 9.79-0.77 9.79-1.66L9.79-1.66 9.79-13.5Q9.79-14.39 10.32-14.85 10.86-15.31 11.69-15.31L11.69-15.31Q12.52-15.31 13.07-14.85 13.62-14.39 13.62-13.5L13.62-13.5 13.62-1.66Q13.62-0.77 13.07-0.29 12.52 0.18 11.69 0.18L11.69 0.18ZM11.69-18.04Q10.64-18.04 10.03-18.6 9.42-19.17 9.42-20.09L9.42-20.09Q9.42-21.01 10.03-21.56 10.64-22.12 11.69-22.12L11.69-22.12Q12.7-22.12 13.33-21.56 13.96-21.01 13.96-20.09L13.96-20.09Q13.96-19.17 13.34-18.6 12.73-18.04 11.69-18.04L11.69-18.04ZM28.04-14.2Q28.28-14.75 28.7-15.02 29.11-15.28 29.6-15.28L29.6-15.28Q30.31-15.28 30.87-14.8 31.44-14.33 31.44-13.62L31.44-13.62Q31.44-13.28 31.26-12.91L31.26-12.91 22.88 4.63Q22.36 5.67 21.26 5.67L21.26 5.67Q20.55 5.67 20.02 5.23 19.48 4.79 19.48 4.11L19.48 4.11Q19.48 3.77 19.66 3.34L19.66 3.34 21.75-1.04 16.04-12.91Q15.89-13.22 15.89-13.62L15.89-13.62Q15.89-14.33 16.49-14.82 17.09-15.31 17.85-15.31L17.85-15.31Q18.37-15.31 18.8-15.05 19.23-14.79 19.48-14.23L19.48-14.23 23.77-4.75 28.04-14.2ZM36.13 0.18Q35.31 0.18 34.77-0.29 34.23-0.77 34.23-1.66L34.23-1.66 34.23-13.5Q34.23-14.39 34.77-14.85 35.31-15.31 36.13-15.31L36.13-15.31Q36.96-15.31 37.52-14.85 38.07-14.39 38.07-13.5L38.07-13.5 38.07-1.66Q38.07-0.77 37.52-0.29 36.96 0.18 36.13 0.18L36.13 0.18ZM36.13-18.04Q35.09-18.04 34.48-18.6 33.87-19.17 33.87-20.09L33.87-20.09Q33.87-21.01 34.48-21.56 35.09-22.12 36.13-22.12L36.13-22.12Q37.15-22.12 37.78-21.56 38.4-21.01 38.4-20.09L38.4-20.09Q38.4-19.17 37.79-18.6 37.18-18.04 36.13-18.04L36.13-18.04ZM50.74-15.37Q53.44-15.37 54.75-13.83 56.07-12.3 56.07-9.2L56.07-9.2 56.07-1.66Q56.07-0.8 55.57-0.31 55.06 0.18 54.17 0.18L54.17 0.18Q53.28 0.18 52.76-0.31 52.24-0.8 52.24-1.66L52.24-1.66 52.24-8.99Q52.24-10.74 51.58-11.53 50.92-12.33 49.51-12.33L49.51-12.33Q47.85-12.33 46.86-11.29 45.86-10.25 45.86-8.5L45.86-8.5 45.86-1.66Q45.86-0.8 45.34-0.31 44.82 0.18 43.93 0.18L43.93 0.18Q43.04 0.18 42.53-0.31 42.02-0.8 42.02-1.66L42.02-1.66 42.02-13.53Q42.02-14.33 42.55-14.82 43.07-15.31 43.96-15.31L43.96-15.31Q44.75-15.31 45.26-14.83 45.77-14.36 45.77-13.59L45.77-13.59 45.77-12.76Q46.53-14.02 47.82-14.69 49.11-15.37 50.74-15.37L50.74-15.37ZM61.87 0.18Q61.04 0.18 60.51-0.29 59.97-0.77 59.97-1.66L59.97-1.66 59.97-19.97Q59.97-20.86 60.51-21.32 61.04-21.78 61.87-21.78L61.87-21.78Q62.7-21.78 63.25-21.32 63.8-20.86 63.8-19.97L63.8-19.97 63.8-1.66Q63.8-0.77 63.25-0.29 62.7 0.18 61.87 0.18L61.87 0.18ZM74.26-15.37Q77.39-15.37 78.91-13.82 80.43-12.27 80.43-9.11L80.43-9.11 80.43-1.63Q80.43-0.8 79.94-0.32 79.45 0.15 78.59 0.15L78.59 0.15Q77.79 0.15 77.29-0.34 76.78-0.83 76.78-1.63L76.78-1.63 76.78-2.3Q76.26-1.1 75.14-0.43 74.02 0.25 72.55 0.25L72.55 0.25Q71.04 0.25 69.82-0.37 68.59-0.98 67.88-2.06 67.18-3.13 67.18-4.45L67.18-4.45Q67.18-6.1 68.02-7.06 68.87-8.01 70.77-8.44 72.67-8.87 76.01-8.87L76.01-8.87 76.78-8.87 76.78-9.57Q76.78-11.07 76.13-11.76 75.49-12.45 74.05-12.45L74.05-12.45Q73.16-12.45 72.24-12.19 71.32-11.93 70.06-11.44L70.06-11.44Q69.26-11.04 68.9-11.04L68.9-11.04Q68.34-11.04 67.99-11.44 67.64-11.84 67.64-12.48L67.64-12.48Q67.64-13.01 67.9-13.39 68.16-13.77 68.77-14.11L68.77-14.11Q69.85-14.69 71.33-15.03 72.82-15.37 74.26-15.37L74.26-15.37ZM73.31-2.52Q74.85-2.52 75.81-3.54 76.78-4.57 76.78-6.2L76.78-6.2 76.78-6.84 76.23-6.84Q74.17-6.84 73.04-6.66 71.9-6.47 71.41-6.01 70.92-5.55 70.92-4.75L70.92-4.75Q70.92-3.77 71.61-3.14 72.3-2.52 73.31-2.52L73.31-2.52ZM93.04-15.37Q95.74-15.37 97.06-13.83 98.37-12.3 98.37-9.2L98.37-9.2 98.37-1.66Q98.37-0.8 97.87-0.31 97.36 0.18 96.47 0.18L96.47 0.18Q95.58 0.18 95.06-0.31 94.54-0.8 94.54-1.66L94.54-1.66 94.54-8.99Q94.54-10.74 93.88-11.53 93.22-12.33 91.81-12.33L91.81-12.33Q90.15-12.33 89.16-11.29 88.16-10.25 88.16-8.5L88.16-8.5 88.16-1.66Q88.16-0.8 87.64-0.31 87.12 0.18 86.23 0.18L86.23 0.18Q85.34 0.18 84.83-0.31 84.33-0.8 84.33-1.66L84.33-1.66 84.33-13.53Q84.33-14.33 84.85-14.82 85.37-15.31 86.26-15.31L86.26-15.31Q87.06-15.31 87.56-14.83 88.07-14.36 88.07-13.59L88.07-13.59 88.07-12.76Q88.83-14.02 90.12-14.69 91.41-15.37 93.04-15.37L93.04-15.37ZM114.97-15.31Q115.83-15.31 116.35-14.82 116.87-14.33 116.87-13.5L116.87-13.5 116.87-1.38Q116.87 2.15 114.91 3.96 112.94 5.77 109.11 5.77L109.11 5.77Q105.77 5.77 103.53 4.51L103.53 4.51Q102.39 3.83 102.39 2.88L102.39 2.88Q102.39 2.21 102.71 1.81 103.04 1.41 103.56 1.41L103.56 1.41Q103.83 1.41 104.23 1.55 104.63 1.69 105.06 1.87L105.06 1.87Q106.17 2.33 107.04 2.58 107.91 2.82 109.05 2.82L109.05 2.82Q113.07 2.82 113.07-1.1L113.07-1.1 113.07-3.07Q112.39-1.81 111.1-1.12 109.82-0.43 108.16-0.43L108.16-0.43Q106.2-0.43 104.68-1.37 103.16-2.3 102.3-3.99 101.44-5.67 101.44-7.88L101.44-7.88Q101.44-10.09 102.29-11.79 103.13-13.5 104.66-14.43 106.2-15.37 108.16-15.37L108.16-15.37Q109.82-15.37 111.1-14.68 112.39-13.99 113.07-12.73L113.07-12.73 113.07-13.53Q113.07-14.33 113.59-14.82 114.11-15.31 114.97-15.31L114.97-15.31ZM109.17-3.4Q111.01-3.4 112.04-4.6 113.07-5.8 113.07-7.88L113.07-7.88Q113.07-10 112.04-11.2 111.01-12.39 109.17-12.39L109.17-12.39Q107.36-12.39 106.32-11.2 105.28-10 105.28-7.88L105.28-7.88Q105.28-5.8 106.32-4.6 107.36-3.4 109.17-3.4L109.17-3.4ZM122.64 0.18Q121.66 0.18 121.01-0.48 120.37-1.13 120.37-2.12L120.37-2.12Q120.37-3.1 121.01-3.76 121.66-4.42 122.64-4.42L122.64-4.42Q123.62-4.42 124.26-3.76 124.91-3.1 124.91-2.12L124.91-2.12Q124.91-1.13 124.26-0.48 123.62 0.18 122.64 0.18L122.64 0.18ZM141.13-15.31Q141.99-15.31 142.52-14.82 143.04-14.33 143.04-13.5L143.04-13.5 143.04-1.38Q143.04 2.15 141.07 3.96 139.11 5.77 135.28 5.77L135.28 5.77Q131.93 5.77 129.69 4.51L129.69 4.51Q128.56 3.83 128.56 2.88L128.56 2.88Q128.56 2.21 128.88 1.81 129.2 1.41 129.72 1.41L129.72 1.41Q130 1.41 130.4 1.55 130.8 1.69 131.23 1.87L131.23 1.87Q132.33 2.33 133.21 2.58 134.08 2.82 135.21 2.82L135.21 2.82Q139.23 2.82 139.23-1.1L139.23-1.1 139.23-3.07Q138.56-1.81 137.27-1.12 135.98-0.43 134.33-0.43L134.33-0.43Q132.36-0.43 130.84-1.37 129.33-2.3 128.47-3.99 127.61-5.67 127.61-7.88L127.61-7.88Q127.61-10.09 128.45-11.79 129.29-13.5 130.83-14.43 132.36-15.37 134.33-15.37L134.33-15.37Q135.98-15.37 137.27-14.68 138.56-13.99 139.23-12.73L139.23-12.73 139.23-13.53Q139.23-14.33 139.75-14.82 140.28-15.31 141.13-15.31L141.13-15.31ZM135.34-3.4Q137.18-3.4 138.21-4.6 139.23-5.8 139.23-7.88L139.23-7.88Q139.23-10 138.21-11.2 137.18-12.39 135.34-12.39L135.34-12.39Q133.53-12.39 132.48-11.2 131.44-10 131.44-7.88L131.44-7.88Q131.44-5.8 132.48-4.6 133.53-3.4 135.34-3.4L135.34-3.4ZM148.9 0.18Q148.07 0.18 147.53-0.29 146.99-0.77 146.99-1.66L146.99-1.66 146.99-13.5Q146.99-14.39 147.53-14.85 148.07-15.31 148.9-15.31L148.9-15.31Q149.72-15.31 150.28-14.85 150.83-14.39 150.83-13.5L150.83-13.5 150.83-1.66Q150.83-0.77 150.28-0.29 149.72 0.18 148.9 0.18L148.9 0.18ZM148.9-18.04Q147.85-18.04 147.24-18.6 146.63-19.17 146.63-20.09L146.63-20.09Q146.63-21.01 147.24-21.56 147.85-22.12 148.9-22.12L148.9-22.12Q149.91-22.12 150.54-21.56 151.17-21.01 151.17-20.09L151.17-20.09Q151.17-19.17 150.55-18.6 149.94-18.04 148.9-18.04L148.9-18.04ZM163.22-2.67Q164.75-2.58 164.75-1.29L164.75-1.29Q164.75-0.55 164.16-0.17 163.56 0.21 162.45 0.15L162.45 0.15 161.63 0.09Q156.47-0.28 156.47-5.43L156.47-5.43 156.47-12.12 154.94-12.12Q154.11-12.12 153.67-12.48 153.22-12.85 153.22-13.56L153.22-13.56Q153.22-14.26 153.67-14.63 154.11-15 154.94-15L154.94-15 156.47-15 156.47-17.82Q156.47-18.65 156.99-19.14 157.52-19.63 158.4-19.63L158.4-19.63Q159.26-19.63 159.79-19.14 160.31-18.65 160.31-17.82L160.31-17.82 160.31-15 162.91-15Q163.74-15 164.19-14.63 164.63-14.26 164.63-13.56L164.63-13.56Q164.63-12.85 164.19-12.48 163.74-12.12 162.91-12.12L162.91-12.12 160.31-12.12 160.31-5.15Q160.31-2.88 162.39-2.73L162.39-2.73 163.22-2.67ZM175.52-15.37Q180.8-15.37 180.8-9.2L180.8-9.2 180.8-1.66Q180.8-0.8 180.29-0.31 179.79 0.18 178.9 0.18L178.9 0.18Q178.01 0.18 177.48-0.31 176.96-0.8 176.96-1.66L176.96-1.66 176.96-9.2Q176.96-10.83 176.3-11.58 175.64-12.33 174.23-12.33L174.23-12.33Q172.58-12.33 171.58-11.29 170.58-10.25 170.58-8.5L170.58-8.5 170.58-1.66Q170.58-0.8 170.06-0.31 169.54 0.18 168.65 0.18L168.65 0.18Q167.76 0.18 167.25-0.31 166.75-0.8 166.75-1.66L166.75-1.66 166.75-20Q166.75-20.8 167.29-21.29 167.82-21.78 168.68-21.78L168.68-21.78Q169.54-21.78 170.06-21.32 170.58-20.86 170.58-20.06L170.58-20.06 170.58-12.91Q171.35-14.11 172.62-14.74 173.9-15.37 175.52-15.37L175.52-15.37ZM196.53-15.31Q197.42-15.31 197.94-14.82 198.47-14.33 198.47-13.5L198.47-13.5 198.47-1.6Q198.47-0.8 197.93-0.31 197.39 0.18 196.53 0.18L196.53 0.18Q195.71 0.18 195.21-0.28 194.72-0.74 194.72-1.53L194.72-1.53 194.72-2.3Q194.02-1.07 192.82-0.41 191.63 0.25 190.12 0.25L190.12 0.25Q184.6 0.25 184.6-5.95L184.6-5.95 184.6-13.5Q184.6-14.33 185.12-14.82 185.64-15.31 186.5-15.31L186.5-15.31Q187.39-15.31 187.91-14.82 188.44-14.33 188.44-13.5L188.44-13.5 188.44-5.92Q188.44-4.33 189.08-3.56 189.72-2.79 191.1-2.79L191.1-2.79Q192.7-2.79 193.67-3.85 194.63-4.91 194.63-6.66L194.63-6.66 194.63-13.5Q194.63-14.33 195.15-14.82 195.67-15.31 196.53-15.31L196.53-15.31ZM211.07-15.37Q213.04-15.37 214.54-14.42 216.04-13.47 216.89-11.72 217.73-9.97 217.73-7.64L217.73-7.64Q217.73-5.31 216.89-3.51 216.04-1.72 214.52-0.74 213.01 0.25 211.07 0.25L211.07 0.25Q209.45 0.25 208.17-0.46 206.9-1.17 206.23-2.42L206.23-2.42 206.23-1.66Q206.23-0.83 205.71-0.34 205.18 0.15 204.33 0.15L204.33 0.15Q203.47 0.15 202.96-0.34 202.45-0.83 202.45-1.66L202.45-1.66 202.45-20Q202.45-20.8 202.99-21.29 203.53-21.78 204.39-21.78L204.39-21.78Q205.25-21.78 205.77-21.32 206.29-20.86 206.29-20.06L206.29-20.06 206.29-12.82Q206.96-14.05 208.22-14.71 209.48-15.37 211.07-15.37L211.07-15.37ZM210.06-2.73Q211.87-2.73 212.88-4.02 213.9-5.31 213.9-7.64L213.9-7.64Q213.9-9.94 212.9-11.17 211.9-12.39 210.06-12.39L210.06-12.39Q208.22-12.39 207.22-11.15 206.23-9.91 206.23-7.58L206.23-7.58Q206.23-5.25 207.22-3.99 208.22-2.73 210.06-2.73L210.06-2.73ZM222.3 0.18Q221.32 0.18 220.67-0.48 220.03-1.13 220.03-2.12L220.03-2.12Q220.03-3.1 220.67-3.76 221.32-4.42 222.3-4.42L222.3-4.42Q223.28-4.42 223.93-3.76 224.57-3.1 224.57-2.12L224.57-2.12Q224.57-1.13 223.93-0.48 223.28 0.18 222.3 0.18L222.3 0.18ZM230 0.18Q229.17 0.18 228.63-0.29 228.1-0.77 228.1-1.66L228.1-1.66 228.1-13.5Q228.1-14.39 228.63-14.85 229.17-15.31 230-15.31L230-15.31Q230.83-15.31 231.38-14.85 231.93-14.39 231.93-13.5L231.93-13.5 231.93-1.66Q231.93-0.77 231.38-0.29 230.83 0.18 230 0.18L230 0.18ZM230-18.04Q228.96-18.04 228.34-18.6 227.73-19.17 227.73-20.09L227.73-20.09Q227.73-21.01 228.34-21.56 228.96-22.12 230-22.12L230-22.12Q231.01-22.12 231.64-21.56 232.27-21.01 232.27-20.09L232.27-20.09Q232.27-19.17 231.66-18.6 231.04-18.04 230-18.04L230-18.04ZM242.73 0.25Q240.43 0.25 238.7-0.71 236.96-1.66 236.01-3.44 235.06-5.21 235.06-7.58L235.06-7.58Q235.06-9.94 236.01-11.7 236.96-13.47 238.7-14.42 240.43-15.37 242.73-15.37L242.73-15.37Q245.03-15.37 246.76-14.42 248.5-13.47 249.43-11.7 250.37-9.94 250.37-7.58L250.37-7.58Q250.37-5.21 249.43-3.44 248.5-1.66 246.76-0.71 245.03 0.25 242.73 0.25L242.73 0.25ZM242.7-2.73Q244.57-2.73 245.55-3.96 246.53-5.18 246.53-7.58L246.53-7.58Q246.53-9.94 245.55-11.18 244.57-12.42 242.73-12.42L242.73-12.42Q240.89-12.42 239.89-11.18 238.9-9.94 238.9-7.58L238.9-7.58Q238.9-5.18 239.88-3.96 240.86-2.73 242.7-2.73L242.7-2.73Z" transform="translate(-1.9900000095367432, 22.1200008392334)"></path></g> <!----> <!----> <!----> <!----> <!----> <!----> <!----></g></g> <g data-gra="path-slogan" fill-rule="" class="tp-slogan iconsvg-slogansvg" fill="#0a0619" transform="translate(94.70499420166016,33.89000129699707)"><!----> <!----> <g transform="scale(1, 1)"><g transform="scale(1)"><path d="M4.55-9.47L4.55-9.47Q5.30-8.72 5.20-8.58L5.20-8.58Q5.16-8.53 5.02-8.53L5.02-8.53Q4.78-8.53 4.64-8.48L4.64-8.48Q4.55-8.48 4.31-8.44L4.31-8.44Q3.84-8.34 3.66-8.30L3.66-8.30L3.66-6.33L3.84-6.33Q4.73-6.33 5.06-6.38L5.06-6.38L5.06-5.48Q4.69-5.53 3.80-5.53L3.80-5.53L3.66-5.53L3.66-4.22L4.17-4.55Q4.64-3.98 5.16-3.19L5.16-3.19L4.31-2.77Q4.08-3.42 3.66-3.98L3.66-3.98L3.66-0.38Q3.66 0.66 3.70 0.94L3.70 0.94L2.67 0.94Q2.77 0.42 2.77-0.38L2.77-0.38L2.77-3.89Q2.20-2.53 1.27-1.08L1.27-1.08Q0.89-1.64 0.61-2.02L0.61-2.02Q1.59-2.77 2.77-5.53L2.77-5.53L2.16-5.53Q1.22-5.53 0.94-5.48L0.94-5.48L0.94-6.38Q1.27-6.33 2.16-6.33L2.16-6.33L2.77-6.33L2.77-8.11Q1.64-7.83 1.31-7.83L1.31-7.83L0.89-8.63Q2.67-8.77 4.55-9.47ZM6.70-8.11L6.70-6.47L9.61-6.47L9.61-8.11L6.70-8.11ZM5.34-3.75L5.34-4.78Q6.14-4.69 7.08-4.69L7.08-4.69L9.09-4.69Q9.70-4.69 10.83-4.78L10.83-4.78L10.83-3.75Q10.08-3.80 9.09-3.84L9.09-3.84L8.53-3.84L8.53-2.53L9.05-2.53Q9.66-2.53 10.69-2.63L10.69-2.63L10.69-1.69Q10.45-1.69 9.61-1.73L9.61-1.73Q9.19-1.73 9.09-1.73L9.09-1.73L8.53-1.73L8.53-0.23L9.38-0.23Q9.52-0.23 10.13-0.28L10.13-0.28Q11.06-0.33 11.34-0.33L11.34-0.33L11.34 0.56Q10.59 0.52 9.38 0.47L9.38 0.47L6.70 0.47Q5.63 0.52 4.83 0.56L4.83 0.56L4.83-0.33Q5.63-0.28 6.70-0.23L6.70-0.23L7.59-0.23L7.59-1.73L7.08-1.73Q5.86-1.73 5.44-1.69L5.44-1.69L5.44-2.63Q6.19-2.53 7.03-2.53L7.03-2.53L7.59-2.53L7.59-3.84L7.08-3.84Q6.09-3.84 5.34-3.75L5.34-3.75ZM5.67-9.05L5.67-9.05Q5.95-8.91 6.66-8.91L6.66-8.91L9.61-8.91Q10.17-8.91 10.69-9.05L10.69-9.05Q10.59-8.72 10.59-8.11L10.59-8.11L10.59-6.47Q10.59-5.86 10.69-5.53L10.69-5.53Q10.03-5.67 9.66-5.63L9.66-5.63L6.66-5.63Q6.05-5.63 5.67-5.53L5.67-5.53Q5.77-5.95 5.77-6.47L5.77-6.47L5.77-8.16Q5.77-8.48 5.67-9.05ZM17.34-9.42L18.52-9.56Q18.61-9.23 18.75-8.77L18.75-8.77Q18.84-8.34 18.94-8.16L18.94-8.16L20.72-8.16Q21.75-8.16 22.83-8.25L22.83-8.25L22.83-7.27Q21.70-7.36 20.67-7.36L20.67-7.36L14.77-7.36Q14.81-4.08 14.53-2.39L14.53-2.39Q14.20-0.56 13.36 0.80L13.36 0.80Q12.89 0.47 12.23 0.42L12.23 0.42Q13.22-0.52 13.55-2.53L13.55-2.53Q13.73-3.52 13.78-4.88L13.78-4.88Q13.78-6 13.73-8.25L13.73-8.25Q14.48-8.16 15.42-8.16L15.42-8.16L17.86-8.16Q17.86-8.11 17.86-8.20L17.86-8.20Q17.67-8.86 17.34-9.42L17.34-9.42ZM17.53-6.47L21.89-6.47L21.89-5.39Q21.84-5.39 21.80-5.39L21.80-5.39Q20.91-5.34 19.03-3.84L19.03-3.84L22.69-3.84Q22.59-3.66 22.45-3.28L22.45-3.28Q22.08-2.44 21.89-1.92L21.89-1.92L20.72-1.97Q20.95-2.25 21.52-3.09L21.52-3.09L19.31-3.09L19.31 0.23Q19.31 0.80 17.81 0.98L17.81 0.98Q17.53 1.03 17.44 1.03L17.44 1.03Q17.30 0.38 16.97 0L16.97 0Q18.52 0.05 18.38-0.28L18.38-0.28L18.38-3.09L16.78-3.09Q15.84-3.09 15.05-3L15.05-3L15.05-3.94Q16.31-3.84 16.83-3.84L16.83-3.84L18.33-3.84Q17.81-4.36 16.97-4.83L16.97-4.83L17.77-5.39Q18.61-4.78 18.80-4.59L18.80-4.59L20.34-5.63L17.48-5.63Q16.13-5.63 15.61-5.58L15.61-5.58L15.61-6.52Q16.27-6.47 17.53-6.47L17.53-6.47ZM32.72-8.39L27.42-8.39L27.42-6.89L32.72-6.89L32.72-8.39ZM34.22-5.39L34.22-5.39Q34.13-4.92 34.13-3.56L34.13-3.56L34.13-3.14Q34.13-1.78 34.22-1.45L34.22-1.45L33-1.45Q33.05-2.20 33.09-3.23L33.09-3.23L33.09-4.41L27.14-4.41L27.14-3.05Q27.19-1.78 27.23-1.13L27.23-1.13L26.02-1.13Q26.02-1.22 26.06-1.88L26.06-1.88Q26.11-2.86 26.11-3.05L26.11-3.05L26.11-3.61Q26.06-4.69 26.02-5.39L26.02-5.39Q26.63-5.30 27.94-5.25L27.94-5.25L31.92-5.25Q33.42-5.30 34.22-5.39ZM29.44-3.89L29.44-3.89Q30.84-3.80 30.80-3.61L30.80-3.61Q30.80-3.56 30.70-3.47L30.70-3.47Q30.61-3.38 30.56-3.23L30.56-3.23Q30.56-3.19 30.56-3.14L30.56-3.14Q30.28-1.13 29.30-0.38L29.30-0.38Q27.66 0.80 25.64 1.17L25.64 1.17Q25.22 0.47 24.61 0.05L24.61 0.05Q27.05 0.05 28.69-1.03L28.69-1.03Q29.44-1.69 29.44-3.80L29.44-3.80Q29.44-3.84 29.44-3.89ZM30.33-0.80L31.13-1.73Q32.06-1.36 34.31-0.23L34.31-0.23Q34.78 0 35.02 0.09L35.02 0.09L34.17 1.13Q32.25-0.05 30.33-0.80L30.33-0.80ZM26.39-9.33L26.39-9.33Q26.72-9.23 27.47-9.23L27.47-9.23L32.67-9.23Q33.33-9.23 33.80-9.33L33.80-9.33Q33.70-8.95 33.70-8.39L33.70-8.39L33.70-6.94Q33.70-6.38 33.80-5.95L33.80-5.95Q33.38-6.05 32.67-6.05L32.67-6.05L27.47-6.05Q26.86-6.05 26.39-5.95L26.39-5.95Q26.48-6.42 26.48-6.89L26.48-6.89L26.48-8.30Q26.48-8.77 26.39-9.33ZM41.25-9.52L41.25-9.52Q42.61-9.47 42.84-9.33L42.84-9.33Q42.84-9.28 42.80-9.19L42.80-9.19Q42.52-8.72 42.52-7.73L42.52-7.73L42.52 0Q42.89 0.75 40.27 0.94L40.27 0.94Q40.22 0.23 39.70-0.33L39.70-0.33Q41.58-0.09 41.39-0.66L41.39-0.66L41.39-7.69Q41.39-9 41.25-9.52ZM43.64-6.33L44.67-6.89Q46.22-4.41 47.34-1.88L47.34-1.88L46.03-1.27Q45-4.17 43.64-6.33L43.64-6.33ZM38.67-6.84L38.67-6.84Q39.89-6.61 40.08-6.42L40.08-6.42Q40.08-6.38 39.98-6.33L39.98-6.33Q39.70-6 39.56-5.53L39.56-5.53Q38.86-3.61 37.73-1.03L37.73-1.03Q37.13-1.41 36.38-1.41L36.38-1.41Q37.88-3 38.67-6.84ZM54.98-9.42L55.97-9.75Q56.30-9.33 56.67-8.53L56.67-8.53L55.78-8.16L57-8.16Q57.80-8.16 58.45-8.25L58.45-8.25Q58.31-7.78 58.31-6.56L58.31-6.56L58.31-4.88Q58.31-4.08 58.41-3.47L58.41-3.47Q57.84-3.56 57.19-3.56L57.19-3.56L56.16-3.56Q56.25-3.09 56.77-1.97L56.77-1.97Q57.56-2.44 58.22-3.19L58.22-3.19Q58.31-3.09 58.45-2.95L58.45-2.95Q59.11-2.34 59.02-2.25L59.02-2.25Q59.02-2.25 58.97-2.25L58.97-2.25Q58.41-2.16 57.23-1.41L57.23-1.41Q58.08-0.70 59.58-0.19L59.58-0.19Q59.16 0.09 58.83 0.80L58.83 0.80Q55.83-0.56 55.27-3.56L55.27-3.56L54.33-3.56L54.33-0.19Q54.84-0.47 55.59-1.36L55.59-1.36Q55.59-0.80 55.92-0.28L55.92-0.28Q54.89 0.14 53.72 1.22L53.72 1.22Q53.48 0.80 53.11 0.42L53.11 0.42Q53.44 0 53.44-1.31L53.44-1.31L53.44-6.33Q53.44-7.59 53.34-8.25L53.34-8.25Q53.72-8.16 54.66-8.16L54.66-8.16L55.64-8.16Q55.55-8.53 54.98-9.42L54.98-9.42ZM57.38-6.19L57.38-7.36L54.33-7.36L54.33-6.19L57.38-6.19ZM57.38-5.48L54.33-5.48L54.33-4.31L57.38-4.31L57.38-5.48ZM48.75-8.53L49.45-9.28Q50.25-8.48 50.86-7.78L50.86-7.78Q51.61-8.67 51.75-9.19L51.75-9.19Q52.69-8.48 52.78-8.25L52.78-8.25Q52.31-8.16 51.38-7.03L51.38-7.03Q52.59-4.50 52.17-0.47L52.17-0.47Q52.13 0.80 49.83 1.03L49.83 1.03Q49.69 0.14 49.17-0.19L49.17-0.19Q50.86 0.09 51.14-0.75L51.14-0.75Q51.23-1.08 51.28-2.20L51.28-2.20Q51.33-3.52 51.23-4.27L51.23-4.27Q50.53-3 49.22-1.64L49.22-1.64Q48.80-2.20 48.33-2.44L48.33-2.44Q49.59-3.09 51-5.39L51-5.39Q50.86-5.95 50.67-6.38L50.67-6.38Q50.25-5.86 49.08-4.83L49.08-4.83Q48.89-5.30 48.47-5.67L48.47-5.67Q49.50-6.38 50.20-7.13L50.20-7.13Q49.41-8.02 48.75-8.53L48.75-8.53Z" transform="translate(-0.609375, 9.75)"></path></g></g></g></g></g><defs v-gra="od"></defs></svg>
